<svg xmlns="http://www.w3.org/2000/svg" width="1024" height="1024" viewBox="0 0 64 64" role="img" aria-label="SwingEdge">
  <defs>
    <linearGradient id="g" x1="0%" y1="100%" x2="100%" y2="0%">
      <stop offset="0%" stop-color="#008555"></stop>
      <stop offset="50%" stop-color="#00C076"></stop>
      <stop offset="100%" stop-color="#16D687"></stop>
    </linearGradient>
    <linearGradient id="area" x1="0" y1="0" x2="0" y2="1">
      <stop offset="0%" stop-color="#ffffff" stop-opacity="0.42"></stop>
      <stop offset="100%" stop-color="#ffffff" stop-opacity="0"></stop>
    </linearGradient>
    <clipPath id="clip"><rect width="64" height="64" rx="14"></rect></clipPath>
    <filter id="glow" x="-40%" y="-40%" width="180%" height="180%">
      <feDropShadow dx="0" dy="0" stdDeviation="1.3" flood-color="#ffffff" flood-opacity="0.5"></feDropShadow>
    </filter>
  </defs>
  <rect width="64" height="64" rx="14" fill="url(#g)"></rect>
  <g clip-path="url(#clip)">
    <g stroke="#ffffff" stroke-opacity="0.13" stroke-width="0.8">
      <line x1="0" y1="22" x2="64" y2="22"></line>
      <line x1="0" y1="34" x2="64" y2="34"></line>
      <line x1="0" y1="46" x2="64" y2="46"></line>
      <line x1="21" y1="0" x2="21" y2="64"></line>
      <line x1="32" y1="0" x2="32" y2="64"></line>
      <line x1="43" y1="0" x2="43" y2="64"></line>
    </g>
    <path d="M12 47 L19 41 L25 44 L31 34 L37 37 L43 25 L48 28 L53 14 L53 64 L12 64 Z" fill="url(#area)"></path>
    <path d="M12 47 L19 41 L25 44 L31 34 L37 37 L43 25 L48 28 L53 14" fill="none" stroke="#ffffff" stroke-width="3.4" stroke-linecap="round" stroke-linejoin="round" filter="url(#glow)"></path>
  </g>
  <circle cx="53" cy="14" r="6.4" fill="#ffffff" fill-opacity="0.22"></circle>
  <circle cx="53" cy="14" r="3.1" fill="#ffffff"></circle>
</svg>
